<svg xmlns="http://www.w3.org/2000/svg" viewBox="0 0 64 64">
  <rect width="64" height="64" rx="16" fill="#e6f3f1" />
  <path
    fill="#0f766e"
    d="M32 8 52 16v14c0 12.1-8.2 23.4-20 26-11.8-2.6-20-13.9-20-26V16z"
  />
  <path
    fill="#ffffff"
    d="M31.9 44.5c-.5 0-.9-.2-1.3-.5l-10.1-9.7c-3.4-3.3-3.7-8.5-.6-11.5 2.7-2.7 7-2.6 10.1.1l1.9 1.7 1.9-1.7c3.1-2.7 7.4-2.8 10.1-.1 3.1 3 2.8 8.2-.6 11.5L33.2 44c-.4.3-.8.5-1.3.5Z"
  />
  <path
    fill="#99f6e4"
    d="M31.9 40.1 23.2 32c-2.2-2.1-2.4-5.2-.7-6.9 1.6-1.6 4.3-1.4 6.2.4l3.2 3 3.2-3c1.9-1.8 4.6-2 6.2-.4 1.7 1.7 1.5 4.8-.7 6.9z"
  />
</svg>
